<svg xmlns="http://www.w3.org/2000/svg" viewBox="0 0 4096 3169">
  <path
    fill="#6ACACE"
    d="M3161.91 69.4953C3253.29 70.5042 3297.02 73.9438 3377.94 111.723C3412.15 127.694 3424.99 129.982 3456.19 154.86C3540.44 222.048 3583.19 295.606 3608.35 386.008C3624.27 443.212 3620.67 498.339 3620.75 556.382L3620.92 725.424L3620.05 1157.03C3619.75 1200.77 3620.7 1245.79 3619.81 1289.33C3619.68 1294.73 3619.36 1300.13 3618.83 1305.52C3555.25 1318.2 3487.42 1323.85 3423.7 1337.3C3391.11 1344.18 3357.57 1348.36 3324.61 1353.91L2716.48 1457.43L2524.57 1489.94C2264.6 1533.37 2171.22 1541.38 2025.45 1731.71C1990.94 1775.83 1964.24 1823.33 1946.06 1872.94C1916.61 1953.76 1906.25 2022.64 1891.36 2105.45L1861.56 2263.99L1768.2 2796.52C1751.03 2898.81 1738.4 3002.07 1716.27 3104.27C1715.61 3110.38 1715.9 3117.43 1711.63 3122.29C1706.87 3125.01 1704.92 3124.98 1698.94 3125.01C1633.84 3125.28 1568.39 3125.24 1503.32 3125.19L1136.22 3125.17L930.819 3125.39C884.852 3125.52 789.3 3128.67 749.556 3114.62C743.409 3113.96 729.937 3109.96 723.363 3108.13C671.736 3093.55 624.84 3070.44 585.947 3040.39C476.96 2957.33 420.864 2827.94 420.024 2711.22C434.525 2698.17 456.158 2674.58 471.17 2659.93C533.497 2599.94 595.283 2535.71 657.432 2474.72C732.256 2399.95 808.825 2326.23 887.102 2253.61C906.972 2235.43 927.558 2219.96 946.907 2202.31L1247.65 1928.7C1404.33 1788.65 1564.78 1651.47 1716.36 1508.04C1792.09 1436.38 1865.12 1360.91 1939.06 1287.95L2295.65 934.961L2433.93 796.302C2465.7 764.144 2495.77 731.225 2529.13 699.805C2546.38 683.17 2570.91 661.462 2586.37 644.564C2610.09 618.839 2641.36 589.739 2666.99 564.547C2699.24 535.938 2743.48 486.675 2775.8 455.833C2797.13 435.469 2861.32 373.975 2877.12 353.68L2879.4 352.879C2896.74 333.02 2953.3 278.053 2973.54 259.259C2983.66 247.013 3002.95 228.943 3014.93 216.854C3042.22 188.833 3070.18 161.201 3098.79 133.971C3116.8 116.947 3149.4 87.7528 3161.91 69.4953Z"
  />
  <path
    fill="#1056A3"
    d="M739.501 80.1606C759.433 79.4168 777.197 71.7184 807.841 71.198C868.662 70.1651 928.768 70.283 989.577 70.2384L1311.35 70.3046L2234.14 70.0523L2523.73 70.1024C2544.27 69.9988 2658.82 68.3488 2674.45 71.0441C2671.94 74.8388 2642.3 102.831 2635.98 109.105L2523.84 219.602L2185.04 557.24L1933.28 809.959L1661.23 1080.46C1464.59 1275.36 1272.44 1473.79 1057.2 1656.74C1049.59 1663.21 1042.52 1670.86 1034.72 1676.98C1020.28 1690.9 1003.93 1703.51 990.256 1716.78C977.737 1730.05 961.126 1743.69 947.07 1756.24C827.966 1862.62 712.015 1972.84 591.975 2078.47L499.23 2160.33C481.857 2175.64 454.073 2199.01 439.806 2215.24C433.831 2217.55 429.291 2220.03 422.804 2219.79C414.759 2206.03 417.936 1908.54 417.918 1874.6L417.227 1308.48L417.055 780.614C417.109 676.24 417.805 571.847 419.362 467.484C420.327 454.423 421.003 440.825 422.91 427.849C444.236 282.74 550.212 130.466 737.892 80.9721C738.428 80.7016 738.965 80.4311 739.501 80.1606Z"
  />
  <path
    fill="#1056A3"
    d="M3329.08 1702.35C3400.81 1689.46 3461 1671.6 3536.72 1671.22C3552.2 1671.14 3603.75 1661.79 3619.9 1658.31C3619.7 1680.13 3618.12 1714.77 3620.43 1735.59C3624.32 1952.91 3620.69 2176.18 3620.75 2393.97L3620.81 2610.62C3620.92 2662.05 3625.97 2760.16 3608.57 2807.34C3606.44 2819.31 3604.15 2826.46 3600.15 2838.23C3597.13 2846.54 3593.62 2857.36 3590.13 2865.33C3553.57 2950.71 3504.37 3013.34 3413.49 3069.52C3307.75 3134.89 3190.57 3126.46 3065.56 3126.51L2721.15 3126.36L2285.5 3126.63L2159.26 3126.74C2134.6 3126.78 2101.34 3127.6 2077.73 3125.37C2075.64 3120.64 2093.58 3037 2095.67 3024.11C2128.55 2817.7 2163.33 2611.47 2200.03 2405.45C2207.27 2380.47 2214.5 2320.04 2219.82 2291.22C2227.2 2234.22 2245.74 2177.09 2252.98 2120.42C2266.29 2016.13 2287.51 1895.62 2418.08 1836.67C2437.64 1827.93 2458.51 1821.07 2480.22 1816.25C2513.03 1808.9 2746.68 1771.69 2763.97 1780.56C2768.46 1782.86 2766.78 1784.85 2773.1 1786.13C2801.84 1778.09 2842.42 1781.36 2872.86 1777.76C2907.53 1773.66 2962.65 1758.96 2996.07 1758.45C3034.43 1752.29 3072.26 1747.28 3110.37 1739.92C3143.15 1733.59 3175.83 1730.95 3208.93 1724.25L3253.43 1716.83C3274.96 1713.26 3309.83 1708.23 3329.08 1702.35Z"
  />
  <path
    fill="#91C9D5"
    d="M749.556 3114.62C773.812 3112.76 790.484 3115.5 813.97 3116.91C845.162 3118.77 878.461 3117.12 910.104 3117.33L1148.71 3117.84L1551.89 3117.2C1575.86 3117.1 1696.3 3120.31 1705.95 3114.11C1709.28 3108.65 1709.69 3107.48 1716.27 3104.27C1715.61 3110.38 1715.9 3117.43 1711.63 3122.29C1706.87 3125.01 1704.92 3124.98 1698.94 3125.01C1633.84 3125.28 1568.39 3125.24 1503.32 3125.19L1136.22 3125.17L930.819 3125.39C884.852 3125.52 789.3 3128.67 749.556 3114.62Z"
  />
</svg>
